<svg xmlns="http://www.w3.org/2000/svg" xmlns:xlink="http://www.w3.org/1999/xlink" width="400" zoomAndPan="magnify" viewBox="0 0 300 449.999984" height="600" preserveAspectRatio="xMidYMid meet" version="1.0"><defs><clipPath id="0e6d5d80d1"><path d="M 13.769531 16.113281 L 253 16.113281 L 253 88.113281 L 13.769531 88.113281 Z M 13.769531 16.113281 " clip-rule="nonzero"/></clipPath><clipPath id="646a68055a"><path d="M 219 18 L 286.019531 18 L 286.019531 86 L 219 86 Z M 219 18 " clip-rule="nonzero"/></clipPath></defs><g clip-path="url(#0e6d5d80d1)"><path fill="#ffffff" d="M 252.6875 16.199219 L 49.585938 16.199219 C 29.886719 16.199219 13.769531 32.359375 13.769531 52.113281 C 13.769531 71.863281 29.886719 88.023438 49.585938 88.023438 L 252.679688 88.023438 Z M 252.6875 16.199219 " fill-opacity="1" fill-rule="evenodd"/></g><g clip-path="url(#646a68055a)"><path fill="#3168d8" d="M 252.6875 18.679688 C 271.105469 18.679688 286.039062 33.644531 286.039062 52.113281 C 286.039062 70.578125 271.105469 85.550781 252.6875 85.550781 C 234.269531 85.550781 219.347656 70.578125 219.347656 52.113281 C 219.347656 33.644531 234.269531 18.679688 252.6875 18.679688 Z M 252.6875 18.679688 " fill-opacity="1" fill-rule="evenodd"/></g><path fill="#3168d8" d="M 54.976562 60.308594 L 54.976562 57.054688 L 46.828125 57.054688 L 46.828125 43.914062 L 43.226562 43.914062 L 43.226562 60.308594 Z M 70.117188 60.308594 L 70.117188 57.101562 L 61.238281 57.101562 L 61.238281 53.65625 L 68.949219 53.65625 L 68.949219 50.445312 L 61.238281 50.445312 L 61.238281 47.125 L 70.003906 47.125 L 70.003906 43.914062 L 57.683594 43.914062 L 57.683594 60.308594 Z M 89.277344 60.308594 L 82.269531 43.792969 L 78.949219 43.792969 L 71.941406 60.308594 L 75.609375 60.308594 L 77.105469 56.632812 L 84.019531 56.632812 L 85.515625 60.308594 Z M 82.738281 53.449219 L 78.386719 53.449219 L 80.558594 48.128906 Z M 105.929688 60.308594 L 101.945312 54.453125 C 102.980469 54.0625 103.828125 53.457031 104.476562 52.613281 C 105.117188 51.78125 105.445312 50.699219 105.445312 49.371094 L 105.445312 49.328125 C 105.445312 47.628906 104.902344 46.292969 103.820312 45.347656 C 102.738281 44.390625 101.226562 43.914062 99.277344 43.914062 L 91.796875 43.914062 L 91.796875 60.308594 L 95.394531 60.308594 L 95.394531 55.0625 L 98.222656 55.0625 L 101.726562 60.308594 Z M 101.796875 49.5625 C 101.796875 50.265625 101.5625 50.828125 101.085938 51.246094 C 100.609375 51.667969 99.925781 51.878906 99.046875 51.878906 L 95.394531 51.878906 L 95.394531 47.167969 L 98.976562 47.167969 C 99.859375 47.167969 100.550781 47.367188 101.050781 47.757812 C 101.554688 48.148438 101.796875 48.730469 101.796875 49.507812 Z M 123.226562 60.308594 L 123.226562 43.914062 L 119.667969 43.914062 L 119.667969 54.011719 L 112.011719 43.914062 L 108.691406 43.914062 L 108.691406 60.308594 L 112.246094 60.308594 L 112.246094 49.890625 L 120.164062 60.308594 Z M 150.511719 60.308594 L 150.511719 43.914062 L 146.636719 43.914062 L 142.335938 50.84375 L 138.035156 43.914062 L 134.160156 43.914062 L 134.160156 60.308594 L 137.707031 60.308594 L 137.707031 49.675781 L 142.265625 56.613281 L 142.359375 56.613281 L 146.964844 49.605469 L 146.964844 60.308594 Z M 171.101562 52.113281 L 171.101562 52.070312 C 171.101562 50.898438 170.882812 49.796875 170.453125 48.773438 C 170.027344 47.75 169.429688 46.863281 168.652344 46.101562 C 167.882812 45.347656 166.972656 44.746094 165.910156 44.296875 C 164.855469 43.855469 163.695312 43.636719 162.433594 43.636719 C 161.167969 43.636719 160 43.855469 158.9375 44.296875 C 157.871094 44.746094 156.945312 45.355469 156.175781 46.125 C 155.40625 46.898438 154.800781 47.800781 154.367188 48.824219 C 153.9375 49.847656 153.710938 50.941406 153.710938 52.113281 L 153.710938 52.164062 C 153.710938 53.335938 153.929688 54.429688 154.359375 55.453125 C 154.785156 56.476562 155.382812 57.367188 156.160156 58.125 C 156.929688 58.878906 157.839844 59.484375 158.902344 59.925781 C 159.957031 60.371094 161.117188 60.59375 162.378906 60.59375 C 163.644531 60.59375 164.8125 60.371094 165.875 59.925781 C 166.9375 59.484375 167.863281 58.871094 168.632812 58.097656 C 169.40625 57.324219 170.011719 56.433594 170.441406 55.40625 C 170.875 54.382812 171.101562 53.28125 171.101562 52.113281 Z M 167.335938 52.164062 C 167.335938 52.867188 167.214844 53.527344 166.972656 54.140625 C 166.730469 54.757812 166.394531 55.296875 165.96875 55.765625 C 165.539062 56.230469 165.019531 56.605469 164.414062 56.867188 C 163.808594 57.132812 163.140625 57.265625 162.433594 57.265625 C 161.695312 57.265625 161.03125 57.132812 160.433594 56.855469 C 159.828125 56.585938 159.308594 56.214844 158.867188 55.746094 C 158.425781 55.277344 158.082031 54.730469 157.839844 54.105469 C 157.597656 53.484375 157.476562 52.816406 157.476562 52.113281 L 157.476562 52.070312 C 157.476562 51.367188 157.597656 50.707031 157.839844 50.089844 C 158.082031 49.464844 158.417969 48.929688 158.839844 48.460938 C 159.273438 47.992188 159.785156 47.628906 160.382812 47.359375 C 160.988281 47.089844 161.652344 46.960938 162.378906 46.960938 C 163.097656 46.960938 163.765625 47.097656 164.371094 47.367188 C 164.976562 47.644531 165.503906 48.019531 165.945312 48.484375 C 166.386719 48.953125 166.730469 49.5 166.972656 50.125 C 167.214844 50.75 167.335938 51.410156 167.335938 52.113281 Z M 188.4375 60.308594 L 184.441406 54.453125 C 185.476562 54.0625 186.324219 53.457031 186.976562 52.613281 C 187.613281 51.78125 187.945312 50.699219 187.945312 49.371094 L 187.945312 49.328125 C 187.945312 47.628906 187.398438 46.292969 186.316406 45.347656 C 185.234375 44.390625 183.722656 43.914062 181.777344 43.914062 L 174.300781 43.914062 L 174.300781 60.308594 L 177.898438 60.308594 L 177.898438 55.0625 L 180.71875 55.0625 L 184.222656 60.308594 Z M 184.300781 49.5625 C 184.300781 50.265625 184.058594 50.828125 183.582031 51.246094 C 183.109375 51.667969 182.425781 51.878906 181.542969 51.878906 L 177.898438 51.878906 L 177.898438 47.167969 L 181.472656 47.167969 C 182.355469 47.167969 183.046875 47.367188 183.550781 47.757812 C 184.050781 48.148438 184.300781 48.730469 184.300781 49.507812 Z M 203.621094 60.308594 L 203.621094 57.101562 L 194.742188 57.101562 L 194.742188 53.65625 L 202.453125 53.65625 L 202.453125 50.445312 L 194.742188 50.445312 L 194.742188 47.125 L 203.5 47.125 L 203.5 43.914062 L 191.1875 43.914062 L 191.1875 60.308594 Z M 203.621094 60.308594 " fill-opacity="1" fill-rule="nonzero"/><path fill="#ffffff" d="M 239.347656 43.601562 L 247.835938 52.113281 L 239.347656 60.621094 C 238.328125 61.652344 238.328125 63.320312 239.347656 64.34375 C 240.378906 65.375 242.039062 65.375 243.070312 64.34375 L 253.40625 53.976562 C 254.4375 52.945312 254.4375 51.277344 253.40625 50.246094 L 243.070312 39.882812 C 242.039062 38.847656 240.378906 38.847656 239.347656 39.882812 C 238.328125 40.90625 238.328125 42.578125 239.347656 43.601562 Z M 251.96875 43.601562 L 260.457031 52.113281 L 251.96875 60.621094 C 250.941406 61.652344 250.941406 63.320312 251.96875 64.34375 C 253 65.375 254.660156 65.375 255.683594 64.34375 L 266.027344 53.976562 C 267.058594 52.945312 267.058594 51.277344 266.027344 50.246094 L 255.683594 39.882812 C 254.660156 38.847656 253 38.847656 251.96875 39.882812 C 250.941406 40.90625 250.941406 42.578125 251.96875 43.601562 Z M 251.96875 43.601562 " fill-opacity="1" fill-rule="evenodd"/></svg>