<svg xmlns="http://www.w3.org/2000/svg" xmlns:xlink="http://www.w3.org/1999/xlink" width="50" zoomAndPan="magnify" viewBox="0 0 37.5 37.499999" height="50" preserveAspectRatio="xMidYMid meet" version="1.0"><defs><filter x="0%" y="0%" width="100%" height="100%" id="3e09d06b2e"><feColorMatrix values="0 0 0 0 1 0 0 0 0 1 0 0 0 0 1 0 0 0 1 0" color-interpolation-filters="sRGB"/></filter><clipPath id="ab57ce964d"><path d="M 0 0 L 37 0 L 37 37.007812 L 0 37.007812 Z M 0 0 " clip-rule="nonzero"/></clipPath><mask id="99657fb0ed"><g filter="url(#3e09d06b2e)"><rect x="-3.75" width="45" fill="#000000" y="-3.75" height="44.999999" fill-opacity="0.47"/></g></mask><clipPath id="412be3b22d"><path d="M 0 0 L 36 0 L 36 37.007812 L 0 37.007812 Z M 0 0 " clip-rule="nonzero"/></clipPath><clipPath id="092d72dfc6"><rect x="0" width="37" y="0" height="38"/></clipPath></defs><g clip-path="url(#ab57ce964d)"><g mask="url(#99657fb0ed)"><g transform="matrix(1, 0, 0, 1, 0, 0)"><g clip-path="url(#092d72dfc6)"><g clip-path="url(#412be3b22d)"><path fill="#ffffff" d="M 0.0820312 3.058594 L 0.00390625 0.40625 C 0.00390625 0.285156 0.0429688 0.203125 0.125 0.121094 C 0.203125 0.0390625 0.285156 0 0.40625 0 L 7.28125 0 C 7.402344 0 7.484375 0.0390625 7.566406 0.121094 L 18.082031 10.636719 L 28.515625 0.121094 C 28.597656 0.0390625 28.675781 0 28.796875 0 L 33.933594 0 C 34.054688 0 34.21875 0.0820312 34.257812 0.203125 L 35.917969 2.8125 C 35.996094 2.933594 35.996094 3.058594 35.957031 3.179688 C 35.957031 3.21875 35.917969 3.300781 35.875 3.34375 L 18.324219 20.746094 C 18.242188 20.828125 18.160156 20.871094 18.039062 20.871094 C 17.917969 20.871094 17.839844 20.828125 17.757812 20.746094 L 0.203125 3.34375 C 0.125 3.261719 0.0820312 3.179688 0.0820312 3.058594 Z M 0.0820312 19.726562 C 0.0820312 19.851562 0.125 19.933594 0.203125 20.011719 L 17.757812 37.378906 C 17.839844 37.460938 17.917969 37.5 18.039062 37.5 C 18.160156 37.5 18.242188 37.460938 18.324219 37.378906 L 35.875 20.011719 C 35.917969 19.972656 35.957031 19.933594 35.957031 19.851562 C 35.996094 19.726562 35.996094 19.566406 35.917969 19.484375 L 34.257812 16.875 C 34.179688 16.753906 34.054688 16.671875 33.933594 16.671875 L 28.796875 16.671875 C 28.675781 16.671875 28.597656 16.710938 28.515625 16.792969 L 18.082031 27.269531 L 7.566406 16.753906 C 7.484375 16.671875 7.402344 16.628906 7.28125 16.628906 L 0.40625 16.628906 C 0.285156 16.628906 0.203125 16.671875 0.125 16.753906 C 0.0429688 16.835938 0.00390625 16.957031 0.00390625 17.039062 L 0.0820312 19.726562 C 0.0820312 19.6875 0.0820312 19.6875 0.0820312 19.726562 Z M 0.0820312 19.726562 " fill-opacity="1" fill-rule="nonzero"/></g></g></g></g></g></svg>