<svg xmlns="http://www.w3.org/2000/svg" xmlns:xlink="http://www.w3.org/1999/xlink" width="400" zoomAndPan="magnify" viewBox="0 0 300 449.999984" height="600" preserveAspectRatio="xMidYMid meet" version="1.0"><defs><filter x="0%" y="0%" width="100%" height="100%" id="9ea1dd2a65"><feColorMatrix values="0 0 0 0 1 0 0 0 0 1 0 0 0 0 1 0 0 0 1 0" color-interpolation-filters="sRGB"/></filter><mask id="0053ad65a4"><g filter="url(#9ea1dd2a65)"><rect x="-30" width="360" fill="#000000" y="-44.999998" height="539.99998" fill-opacity="0.47"/></g></mask><clipPath id="4515680928"><path d="M 0.835938 0.660156 L 159.085938 0.660156 L 159.085938 164.160156 L 0.835938 164.160156 Z M 0.835938 0.660156 " clip-rule="nonzero"/></clipPath><clipPath id="a4e48b2c0a"><rect x="0" width="160" y="0" height="166"/></clipPath></defs><g mask="url(#0053ad65a4)"><g transform="matrix(1, 0, 0, 1, 70, 8)"><g clip-path="url(#a4e48b2c0a)"><g clip-path="url(#4515680928)"><path fill="#ffffff" d="M 1.203125 13.988281 L 0.84375 2.4375 C 0.84375 1.90625 1.023438 1.550781 1.378906 1.195312 C 1.734375 0.839844 2.089844 0.660156 2.625 0.660156 L 32.847656 0.660156 C 33.382812 0.660156 33.738281 0.839844 34.09375 1.195312 L 80.316406 47.042969 L 126.1875 1.195312 C 126.542969 0.839844 126.898438 0.660156 127.433594 0.660156 L 150.011719 0.660156 C 150.546875 0.660156 151.257812 1.015625 151.433594 1.550781 L 158.722656 12.921875 C 159.078125 13.457031 159.078125 13.988281 158.902344 14.523438 C 158.902344 14.699219 158.722656 15.054688 158.546875 15.234375 L 81.386719 91.117188 C 81.03125 91.472656 80.675781 91.652344 80.140625 91.652344 C 79.605469 91.652344 79.25 91.472656 78.894531 91.117188 L 1.734375 15.234375 C 1.378906 14.878906 1.203125 14.523438 1.203125 13.988281 Z M 1.203125 86.675781 C 1.203125 87.207031 1.378906 87.5625 1.734375 87.917969 L 78.894531 163.628906 C 79.25 163.984375 79.605469 164.160156 80.140625 164.160156 C 80.675781 164.160156 81.03125 163.984375 81.386719 163.628906 L 158.546875 87.917969 C 158.722656 87.742188 158.902344 87.5625 158.902344 87.207031 C 159.078125 86.675781 159.078125 85.964844 158.722656 85.609375 L 151.433594 74.234375 C 151.078125 73.703125 150.546875 73.347656 150.011719 73.347656 L 127.433594 73.347656 C 126.898438 73.347656 126.542969 73.523438 126.1875 73.878906 L 80.316406 119.554688 L 34.09375 73.703125 C 33.738281 73.347656 33.382812 73.167969 32.847656 73.167969 L 2.625 73.167969 C 2.089844 73.167969 1.734375 73.347656 1.378906 73.703125 C 1.023438 74.058594 0.84375 74.589844 0.84375 74.945312 L 1.203125 86.675781 C 1.203125 86.496094 1.203125 86.496094 1.203125 86.675781 Z M 1.203125 86.675781 " fill-opacity="1" fill-rule="nonzero"/></g></g></g></g></svg>